# Generated smooth visual mesh for LILAC MuJoCo scene
v 0.018000 0.000000 -0.004000
v 0.017846 0.002349 -0.004000
v 0.017387 0.004659 -0.004000
v 0.016630 0.006888 -0.004000
v 0.015588 0.009000 -0.004000
v 0.014280 0.010958 -0.004000
v 0.012728 0.012728 -0.004000
v 0.010958 0.014280 -0.004000
v 0.009000 0.015588 -0.004000
v 0.006888 0.016630 -0.004000
v 0.004659 0.017387 -0.004000
v 0.002349 0.017846 -0.004000
v 0.000000 0.018000 -0.004000
v -0.002349 0.017846 -0.004000
v -0.004659 0.017387 -0.004000
v -0.006888 0.016630 -0.004000
v -0.009000 0.015588 -0.004000
v -0.010958 0.014280 -0.004000
v -0.012728 0.012728 -0.004000
v -0.014280 0.010958 -0.004000
v -0.015588 0.009000 -0.004000
v -0.016630 0.006888 -0.004000
v -0.017387 0.004659 -0.004000
v -0.017846 0.002349 -0.004000
v -0.018000 0.000000 -0.004000
v -0.017846 -0.002349 -0.004000
v -0.017387 -0.004659 -0.004000
v -0.016630 -0.006888 -0.004000
v -0.015588 -0.009000 -0.004000
v -0.014280 -0.010958 -0.004000
v -0.012728 -0.012728 -0.004000
v -0.010958 -0.014280 -0.004000
v -0.009000 -0.015588 -0.004000
v -0.006888 -0.016630 -0.004000
v -0.004659 -0.017387 -0.004000
v -0.002349 -0.017846 -0.004000
v -0.000000 -0.018000 -0.004000
v 0.002349 -0.017846 -0.004000
v 0.004659 -0.017387 -0.004000
v 0.006888 -0.016630 -0.004000
v 0.009000 -0.015588 -0.004000
v 0.010958 -0.014280 -0.004000
v 0.012728 -0.012728 -0.004000
v 0.014280 -0.010958 -0.004000
v 0.015588 -0.009000 -0.004000
v 0.016630 -0.006888 -0.004000
v 0.017387 -0.004659 -0.004000
v 0.017846 -0.002349 -0.004000
v 0.070000 0.000000 0.000000
v 0.069401 0.009137 0.000000
v 0.067615 0.018117 0.000000
v 0.064672 0.026788 0.000000
v 0.060622 0.035000 0.000000
v 0.055535 0.042613 0.000000
v 0.049497 0.049497 0.000000
v 0.042613 0.055535 0.000000
v 0.035000 0.060622 0.000000
v 0.026788 0.064672 0.000000
v 0.018117 0.067615 0.000000
v 0.009137 0.069401 0.000000
v 0.000000 0.070000 0.000000
v -0.009137 0.069401 0.000000
v -0.018117 0.067615 0.000000
v -0.026788 0.064672 0.000000
v -0.035000 0.060622 0.000000
v -0.042613 0.055535 0.000000
v -0.049497 0.049497 0.000000
v -0.055535 0.042613 0.000000
v -0.060622 0.035000 0.000000
v -0.064672 0.026788 0.000000
v -0.067615 0.018117 0.000000
v -0.069401 0.009137 0.000000
v -0.070000 0.000000 0.000000
v -0.069401 -0.009137 0.000000
v -0.067615 -0.018117 0.000000
v -0.064672 -0.026788 0.000000
v -0.060622 -0.035000 0.000000
v -0.055535 -0.042613 0.000000
v -0.049497 -0.049497 0.000000
v -0.042613 -0.055535 0.000000
v -0.035000 -0.060622 0.000000
v -0.026788 -0.064672 0.000000
v -0.018117 -0.067615 0.000000
v -0.009137 -0.069401 0.000000
v -0.000000 -0.070000 0.000000
v 0.009137 -0.069401 0.000000
v 0.018117 -0.067615 0.000000
v 0.026788 -0.064672 0.000000
v 0.035000 -0.060622 0.000000
v 0.042613 -0.055535 0.000000
v 0.049497 -0.049497 0.000000
v 0.055535 -0.042613 0.000000
v 0.060622 -0.035000 0.000000
v 0.064672 -0.026788 0.000000
v 0.067615 -0.018117 0.000000
v 0.069401 -0.009137 0.000000
v 0.092000 0.000000 0.026000
v 0.091213 0.012008 0.026000
v 0.088865 0.023811 0.026000
v 0.084997 0.035207 0.026000
v 0.079674 0.046000 0.026000
v 0.072989 0.056006 0.026000
v 0.065054 0.065054 0.026000
v 0.056006 0.072989 0.026000
v 0.046000 0.079674 0.026000
v 0.035207 0.084997 0.026000
v 0.023811 0.088865 0.026000
v 0.012008 0.091213 0.026000
v 0.000000 0.092000 0.026000
v -0.012008 0.091213 0.026000
v -0.023811 0.088865 0.026000
v -0.035207 0.084997 0.026000
v -0.046000 0.079674 0.026000
v -0.056006 0.072989 0.026000
v -0.065054 0.065054 0.026000
v -0.072989 0.056006 0.026000
v -0.079674 0.046000 0.026000
v -0.084997 0.035207 0.026000
v -0.088865 0.023811 0.026000
v -0.091213 0.012008 0.026000
v -0.092000 0.000000 0.026000
v -0.091213 -0.012008 0.026000
v -0.088865 -0.023811 0.026000
v -0.084997 -0.035207 0.026000
v -0.079674 -0.046000 0.026000
v -0.072989 -0.056006 0.026000
v -0.065054 -0.065054 0.026000
v -0.056006 -0.072989 0.026000
v -0.046000 -0.079674 0.026000
v -0.035207 -0.084997 0.026000
v -0.023811 -0.088865 0.026000
v -0.012008 -0.091213 0.026000
v -0.000000 -0.092000 0.026000
v 0.012008 -0.091213 0.026000
v 0.023811 -0.088865 0.026000
v 0.035207 -0.084997 0.026000
v 0.046000 -0.079674 0.026000
v 0.056006 -0.072989 0.026000
v 0.065054 -0.065054 0.026000
v 0.072989 -0.056006 0.026000
v 0.079674 -0.046000 0.026000
v 0.084997 -0.035207 0.026000
v 0.088865 -0.023811 0.026000
v 0.091213 -0.012008 0.026000
v 0.105000 0.000000 0.042000
v 0.104102 0.013705 0.042000
v 0.101422 0.027176 0.042000
v 0.097007 0.040182 0.042000
v 0.090933 0.052500 0.042000
v 0.083302 0.063920 0.042000
v 0.074246 0.074246 0.042000
v 0.063920 0.083302 0.042000
v 0.052500 0.090933 0.042000
v 0.040182 0.097007 0.042000
v 0.027176 0.101422 0.042000
v 0.013705 0.104102 0.042000
v 0.000000 0.105000 0.042000
v -0.013705 0.104102 0.042000
v -0.027176 0.101422 0.042000
v -0.040182 0.097007 0.042000
v -0.052500 0.090933 0.042000
v -0.063920 0.083302 0.042000
v -0.074246 0.074246 0.042000
v -0.083302 0.063920 0.042000
v -0.090933 0.052500 0.042000
v -0.097007 0.040182 0.042000
v -0.101422 0.027176 0.042000
v -0.104102 0.013705 0.042000
v -0.105000 0.000000 0.042000
v -0.104102 -0.013705 0.042000
v -0.101422 -0.027176 0.042000
v -0.097007 -0.040182 0.042000
v -0.090933 -0.052500 0.042000
v -0.083302 -0.063920 0.042000
v -0.074246 -0.074246 0.042000
v -0.063920 -0.083302 0.042000
v -0.052500 -0.090933 0.042000
v -0.040182 -0.097007 0.042000
v -0.027176 -0.101422 0.042000
v -0.013705 -0.104102 0.042000
v -0.000000 -0.105000 0.042000
v 0.013705 -0.104102 0.042000
v 0.027176 -0.101422 0.042000
v 0.040182 -0.097007 0.042000
v 0.052500 -0.090933 0.042000
v 0.063920 -0.083302 0.042000
v 0.074246 -0.074246 0.042000
v 0.083302 -0.063920 0.042000
v 0.090933 -0.052500 0.042000
v 0.097007 -0.040182 0.042000
v 0.101422 -0.027176 0.042000
v 0.104102 -0.013705 0.042000
v 0.088000 0.000000 0.045000
v 0.087247 0.011486 0.045000
v 0.085001 0.022776 0.045000
v 0.081301 0.033676 0.045000
v 0.076210 0.044000 0.045000
v 0.069815 0.053571 0.045000
v 0.062225 0.062225 0.045000
v 0.053571 0.069815 0.045000
v 0.044000 0.076210 0.045000
v 0.033676 0.081301 0.045000
v 0.022776 0.085001 0.045000
v 0.011486 0.087247 0.045000
v 0.000000 0.088000 0.045000
v -0.011486 0.087247 0.045000
v -0.022776 0.085001 0.045000
v -0.033676 0.081301 0.045000
v -0.044000 0.076210 0.045000
v -0.053571 0.069815 0.045000
v -0.062225 0.062225 0.045000
v -0.069815 0.053571 0.045000
v -0.076210 0.044000 0.045000
v -0.081301 0.033676 0.045000
v -0.085001 0.022776 0.045000
v -0.087247 0.011486 0.045000
v -0.088000 0.000000 0.045000
v -0.087247 -0.011486 0.045000
v -0.085001 -0.022776 0.045000
v -0.081301 -0.033676 0.045000
v -0.076210 -0.044000 0.045000
v -0.069815 -0.053571 0.045000
v -0.062225 -0.062225 0.045000
v -0.053571 -0.069815 0.045000
v -0.044000 -0.076210 0.045000
v -0.033676 -0.081301 0.045000
v -0.022776 -0.085001 0.045000
v -0.011486 -0.087247 0.045000
v -0.000000 -0.088000 0.045000
v 0.011486 -0.087247 0.045000
v 0.022776 -0.085001 0.045000
v 0.033676 -0.081301 0.045000
v 0.044000 -0.076210 0.045000
v 0.053571 -0.069815 0.045000
v 0.062225 -0.062225 0.045000
v 0.069815 -0.053571 0.045000
v 0.076210 -0.044000 0.045000
v 0.081301 -0.033676 0.045000
v 0.085001 -0.022776 0.045000
v 0.087247 -0.011486 0.045000
v 0.055000 0.000000 0.014000
v 0.054529 0.007179 0.014000
v 0.053126 0.014235 0.014000
v 0.050813 0.021048 0.014000
v 0.047631 0.027500 0.014000
v 0.043634 0.033482 0.014000
v 0.038891 0.038891 0.014000
v 0.033482 0.043634 0.014000
v 0.027500 0.047631 0.014000
v 0.021048 0.050813 0.014000
v 0.014235 0.053126 0.014000
v 0.007179 0.054529 0.014000
v 0.000000 0.055000 0.014000
v -0.007179 0.054529 0.014000
v -0.014235 0.053126 0.014000
v -0.021048 0.050813 0.014000
v -0.027500 0.047631 0.014000
v -0.033482 0.043634 0.014000
v -0.038891 0.038891 0.014000
v -0.043634 0.033482 0.014000
v -0.047631 0.027500 0.014000
v -0.050813 0.021048 0.014000
v -0.053126 0.014235 0.014000
v -0.054529 0.007179 0.014000
v -0.055000 0.000000 0.014000
v -0.054529 -0.007179 0.014000
v -0.053126 -0.014235 0.014000
v -0.050813 -0.021048 0.014000
v -0.047631 -0.027500 0.014000
v -0.043634 -0.033482 0.014000
v -0.038891 -0.038891 0.014000
v -0.033482 -0.043634 0.014000
v -0.027500 -0.047631 0.014000
v -0.021048 -0.050813 0.014000
v -0.014235 -0.053126 0.014000
v -0.007179 -0.054529 0.014000
v -0.000000 -0.055000 0.014000
v 0.007179 -0.054529 0.014000
v 0.014235 -0.053126 0.014000
v 0.021048 -0.050813 0.014000
v 0.027500 -0.047631 0.014000
v 0.033482 -0.043634 0.014000
v 0.038891 -0.038891 0.014000
v 0.043634 -0.033482 0.014000
v 0.047631 -0.027500 0.014000
v 0.050813 -0.021048 0.014000
v 0.053126 -0.014235 0.014000
v 0.054529 -0.007179 0.014000
v 0.018000 0.000000 0.010000
v 0.017846 0.002349 0.010000
v 0.017387 0.004659 0.010000
v 0.016630 0.006888 0.010000
v 0.015588 0.009000 0.010000
v 0.014280 0.010958 0.010000
v 0.012728 0.012728 0.010000
v 0.010958 0.014280 0.010000
v 0.009000 0.015588 0.010000
v 0.006888 0.016630 0.010000
v 0.004659 0.017387 0.010000
v 0.002349 0.017846 0.010000
v 0.000000 0.018000 0.010000
v -0.002349 0.017846 0.010000
v -0.004659 0.017387 0.010000
v -0.006888 0.016630 0.010000
v -0.009000 0.015588 0.010000
v -0.010958 0.014280 0.010000
v -0.012728 0.012728 0.010000
v -0.014280 0.010958 0.010000
v -0.015588 0.009000 0.010000
v -0.016630 0.006888 0.010000
v -0.017387 0.004659 0.010000
v -0.017846 0.002349 0.010000
v -0.018000 0.000000 0.010000
v -0.017846 -0.002349 0.010000
v -0.017387 -0.004659 0.010000
v -0.016630 -0.006888 0.010000
v -0.015588 -0.009000 0.010000
v -0.014280 -0.010958 0.010000
v -0.012728 -0.012728 0.010000
v -0.010958 -0.014280 0.010000
v -0.009000 -0.015588 0.010000
v -0.006888 -0.016630 0.010000
v -0.004659 -0.017387 0.010000
v -0.002349 -0.017846 0.010000
v -0.000000 -0.018000 0.010000
v 0.002349 -0.017846 0.010000
v 0.004659 -0.017387 0.010000
v 0.006888 -0.016630 0.010000
v 0.009000 -0.015588 0.010000
v 0.010958 -0.014280 0.010000
v 0.012728 -0.012728 0.010000
v 0.014280 -0.010958 0.010000
v 0.015588 -0.009000 0.010000
v 0.016630 -0.006888 0.010000
v 0.017387 -0.004659 0.010000
v 0.017846 -0.002349 0.010000
v 0.000000 0.000000 -0.004000
v 0.000000 0.000000 0.010000
f 1 2 50 49
f 2 3 51 50
f 3 4 52 51
f 4 5 53 52
f 5 6 54 53
f 6 7 55 54
f 7 8 56 55
f 8 9 57 56
f 9 10 58 57
f 10 11 59 58
f 11 12 60 59
f 12 13 61 60
f 13 14 62 61
f 14 15 63 62
f 15 16 64 63
f 16 17 65 64
f 17 18 66 65
f 18 19 67 66
f 19 20 68 67
f 20 21 69 68
f 21 22 70 69
f 22 23 71 70
f 23 24 72 71
f 24 25 73 72
f 25 26 74 73
f 26 27 75 74
f 27 28 76 75
f 28 29 77 76
f 29 30 78 77
f 30 31 79 78
f 31 32 80 79
f 32 33 81 80
f 33 34 82 81
f 34 35 83 82
f 35 36 84 83
f 36 37 85 84
f 37 38 86 85
f 38 39 87 86
f 39 40 88 87
f 40 41 89 88
f 41 42 90 89
f 42 43 91 90
f 43 44 92 91
f 44 45 93 92
f 45 46 94 93
f 46 47 95 94
f 47 48 96 95
f 48 1 49 96
f 49 50 98 97
f 50 51 99 98
f 51 52 100 99
f 52 53 101 100
f 53 54 102 101
f 54 55 103 102
f 55 56 104 103
f 56 57 105 104
f 57 58 106 105
f 58 59 107 106
f 59 60 108 107
f 60 61 109 108
f 61 62 110 109
f 62 63 111 110
f 63 64 112 111
f 64 65 113 112
f 65 66 114 113
f 66 67 115 114
f 67 68 116 115
f 68 69 117 116
f 69 70 118 117
f 70 71 119 118
f 71 72 120 119
f 72 73 121 120
f 73 74 122 121
f 74 75 123 122
f 75 76 124 123
f 76 77 125 124
f 77 78 126 125
f 78 79 127 126
f 79 80 128 127
f 80 81 129 128
f 81 82 130 129
f 82 83 131 130
f 83 84 132 131
f 84 85 133 132
f 85 86 134 133
f 86 87 135 134
f 87 88 136 135
f 88 89 137 136
f 89 90 138 137
f 90 91 139 138
f 91 92 140 139
f 92 93 141 140
f 93 94 142 141
f 94 95 143 142
f 95 96 144 143
f 96 49 97 144
f 97 98 146 145
f 98 99 147 146
f 99 100 148 147
f 100 101 149 148
f 101 102 150 149
f 102 103 151 150
f 103 104 152 151
f 104 105 153 152
f 105 106 154 153
f 106 107 155 154
f 107 108 156 155
f 108 109 157 156
f 109 110 158 157
f 110 111 159 158
f 111 112 160 159
f 112 113 161 160
f 113 114 162 161
f 114 115 163 162
f 115 116 164 163
f 116 117 165 164
f 117 118 166 165
f 118 119 167 166
f 119 120 168 167
f 120 121 169 168
f 121 122 170 169
f 122 123 171 170
f 123 124 172 171
f 124 125 173 172
f 125 126 174 173
f 126 127 175 174
f 127 128 176 175
f 128 129 177 176
f 129 130 178 177
f 130 131 179 178
f 131 132 180 179
f 132 133 181 180
f 133 134 182 181
f 134 135 183 182
f 135 136 184 183
f 136 137 185 184
f 137 138 186 185
f 138 139 187 186
f 139 140 188 187
f 140 141 189 188
f 141 142 190 189
f 142 143 191 190
f 143 144 192 191
f 144 97 145 192
f 145 146 194 193
f 146 147 195 194
f 147 148 196 195
f 148 149 197 196
f 149 150 198 197
f 150 151 199 198
f 151 152 200 199
f 152 153 201 200
f 153 154 202 201
f 154 155 203 202
f 155 156 204 203
f 156 157 205 204
f 157 158 206 205
f 158 159 207 206
f 159 160 208 207
f 160 161 209 208
f 161 162 210 209
f 162 163 211 210
f 163 164 212 211
f 164 165 213 212
f 165 166 214 213
f 166 167 215 214
f 167 168 216 215
f 168 169 217 216
f 169 170 218 217
f 170 171 219 218
f 171 172 220 219
f 172 173 221 220
f 173 174 222 221
f 174 175 223 222
f 175 176 224 223
f 176 177 225 224
f 177 178 226 225
f 178 179 227 226
f 179 180 228 227
f 180 181 229 228
f 181 182 230 229
f 182 183 231 230
f 183 184 232 231
f 184 185 233 232
f 185 186 234 233
f 186 187 235 234
f 187 188 236 235
f 188 189 237 236
f 189 190 238 237
f 190 191 239 238
f 191 192 240 239
f 192 145 193 240
f 193 194 242 241
f 194 195 243 242
f 195 196 244 243
f 196 197 245 244
f 197 198 246 245
f 198 199 247 246
f 199 200 248 247
f 200 201 249 248
f 201 202 250 249
f 202 203 251 250
f 203 204 252 251
f 204 205 253 252
f 205 206 254 253
f 206 207 255 254
f 207 208 256 255
f 208 209 257 256
f 209 210 258 257
f 210 211 259 258
f 211 212 260 259
f 212 213 261 260
f 213 214 262 261
f 214 215 263 262
f 215 216 264 263
f 216 217 265 264
f 217 218 266 265
f 218 219 267 266
f 219 220 268 267
f 220 221 269 268
f 221 222 270 269
f 222 223 271 270
f 223 224 272 271
f 224 225 273 272
f 225 226 274 273
f 226 227 275 274
f 227 228 276 275
f 228 229 277 276
f 229 230 278 277
f 230 231 279 278
f 231 232 280 279
f 232 233 281 280
f 233 234 282 281
f 234 235 283 282
f 235 236 284 283
f 236 237 285 284
f 237 238 286 285
f 238 239 287 286
f 239 240 288 287
f 240 193 241 288
f 241 242 290 289
f 242 243 291 290
f 243 244 292 291
f 244 245 293 292
f 245 246 294 293
f 246 247 295 294
f 247 248 296 295
f 248 249 297 296
f 249 250 298 297
f 250 251 299 298
f 251 252 300 299
f 252 253 301 300
f 253 254 302 301
f 254 255 303 302
f 255 256 304 303
f 256 257 305 304
f 257 258 306 305
f 258 259 307 306
f 259 260 308 307
f 260 261 309 308
f 261 262 310 309
f 262 263 311 310
f 263 264 312 311
f 264 265 313 312
f 265 266 314 313
f 266 267 315 314
f 267 268 316 315
f 268 269 317 316
f 269 270 318 317
f 270 271 319 318
f 271 272 320 319
f 272 273 321 320
f 273 274 322 321
f 274 275 323 322
f 275 276 324 323
f 276 277 325 324
f 277 278 326 325
f 278 279 327 326
f 279 280 328 327
f 280 281 329 328
f 281 282 330 329
f 282 283 331 330
f 283 284 332 331
f 284 285 333 332
f 285 286 334 333
f 286 287 335 334
f 287 288 336 335
f 288 241 289 336
f 337 2 1
f 338 289 290
f 337 3 2
f 338 290 291
f 337 4 3
f 338 291 292
f 337 5 4
f 338 292 293
f 337 6 5
f 338 293 294
f 337 7 6
f 338 294 295
f 337 8 7
f 338 295 296
f 337 9 8
f 338 296 297
f 337 10 9
f 338 297 298
f 337 11 10
f 338 298 299
f 337 12 11
f 338 299 300
f 337 13 12
f 338 300 301
f 337 14 13
f 338 301 302
f 337 15 14
f 338 302 303
f 337 16 15
f 338 303 304
f 337 17 16
f 338 304 305
f 337 18 17
f 338 305 306
f 337 19 18
f 338 306 307
f 337 20 19
f 338 307 308
f 337 21 20
f 338 308 309
f 337 22 21
f 338 309 310
f 337 23 22
f 338 310 311
f 337 24 23
f 338 311 312
f 337 25 24
f 338 312 313
f 337 26 25
f 338 313 314
f 337 27 26
f 338 314 315
f 337 28 27
f 338 315 316
f 337 29 28
f 338 316 317
f 337 30 29
f 338 317 318
f 337 31 30
f 338 318 319
f 337 32 31
f 338 319 320
f 337 33 32
f 338 320 321
f 337 34 33
f 338 321 322
f 337 35 34
f 338 322 323
f 337 36 35
f 338 323 324
f 337 37 36
f 338 324 325
f 337 38 37
f 338 325 326
f 337 39 38
f 338 326 327
f 337 40 39
f 338 327 328
f 337 41 40
f 338 328 329
f 337 42 41
f 338 329 330
f 337 43 42
f 338 330 331
f 337 44 43
f 338 331 332
f 337 45 44
f 338 332 333
f 337 46 45
f 338 333 334
f 337 47 46
f 338 334 335
f 337 48 47
f 338 335 336
f 337 1 48
f 338 336 289
