# Generated smooth visual mesh for LILAC MuJoCo scene
v 0.040000 0.000000 -0.055000
v 0.039658 0.005221 -0.055000
v 0.038637 0.010353 -0.055000
v 0.036955 0.015307 -0.055000
v 0.034641 0.020000 -0.055000
v 0.031734 0.024350 -0.055000
v 0.028284 0.028284 -0.055000
v 0.024350 0.031734 -0.055000
v 0.020000 0.034641 -0.055000
v 0.015307 0.036955 -0.055000
v 0.010353 0.038637 -0.055000
v 0.005221 0.039658 -0.055000
v 0.000000 0.040000 -0.055000
v -0.005221 0.039658 -0.055000
v -0.010353 0.038637 -0.055000
v -0.015307 0.036955 -0.055000
v -0.020000 0.034641 -0.055000
v -0.024350 0.031734 -0.055000
v -0.028284 0.028284 -0.055000
v -0.031734 0.024350 -0.055000
v -0.034641 0.020000 -0.055000
v -0.036955 0.015307 -0.055000
v -0.038637 0.010353 -0.055000
v -0.039658 0.005221 -0.055000
v -0.040000 0.000000 -0.055000
v -0.039658 -0.005221 -0.055000
v -0.038637 -0.010353 -0.055000
v -0.036955 -0.015307 -0.055000
v -0.034641 -0.020000 -0.055000
v -0.031734 -0.024350 -0.055000
v -0.028284 -0.028284 -0.055000
v -0.024350 -0.031734 -0.055000
v -0.020000 -0.034641 -0.055000
v -0.015307 -0.036955 -0.055000
v -0.010353 -0.038637 -0.055000
v -0.005221 -0.039658 -0.055000
v -0.000000 -0.040000 -0.055000
v 0.005221 -0.039658 -0.055000
v 0.010353 -0.038637 -0.055000
v 0.015307 -0.036955 -0.055000
v 0.020000 -0.034641 -0.055000
v 0.024350 -0.031734 -0.055000
v 0.028284 -0.028284 -0.055000
v 0.031734 -0.024350 -0.055000
v 0.034641 -0.020000 -0.055000
v 0.036955 -0.015307 -0.055000
v 0.038637 -0.010353 -0.055000
v 0.039658 -0.005221 -0.055000
v 0.040000 0.000000 0.055000
v 0.039658 0.005221 0.055000
v 0.038637 0.010353 0.055000
v 0.036955 0.015307 0.055000
v 0.034641 0.020000 0.055000
v 0.031734 0.024350 0.055000
v 0.028284 0.028284 0.055000
v 0.024350 0.031734 0.055000
v 0.020000 0.034641 0.055000
v 0.015307 0.036955 0.055000
v 0.010353 0.038637 0.055000
v 0.005221 0.039658 0.055000
v 0.000000 0.040000 0.055000
v -0.005221 0.039658 0.055000
v -0.010353 0.038637 0.055000
v -0.015307 0.036955 0.055000
v -0.020000 0.034641 0.055000
v -0.024350 0.031734 0.055000
v -0.028284 0.028284 0.055000
v -0.031734 0.024350 0.055000
v -0.034641 0.020000 0.055000
v -0.036955 0.015307 0.055000
v -0.038637 0.010353 0.055000
v -0.039658 0.005221 0.055000
v -0.040000 0.000000 0.055000
v -0.039658 -0.005221 0.055000
v -0.038637 -0.010353 0.055000
v -0.036955 -0.015307 0.055000
v -0.034641 -0.020000 0.055000
v -0.031734 -0.024350 0.055000
v -0.028284 -0.028284 0.055000
v -0.024350 -0.031734 0.055000
v -0.020000 -0.034641 0.055000
v -0.015307 -0.036955 0.055000
v -0.010353 -0.038637 0.055000
v -0.005221 -0.039658 0.055000
v -0.000000 -0.040000 0.055000
v 0.005221 -0.039658 0.055000
v 0.010353 -0.038637 0.055000
v 0.015307 -0.036955 0.055000
v 0.020000 -0.034641 0.055000
v 0.024350 -0.031734 0.055000
v 0.028284 -0.028284 0.055000
v 0.031734 -0.024350 0.055000
v 0.034641 -0.020000 0.055000
v 0.036955 -0.015307 0.055000
v 0.038637 -0.010353 0.055000
v 0.039658 -0.005221 0.055000
v 0.031000 0.000000 0.055000
v 0.030735 0.004046 0.055000
v 0.029944 0.008023 0.055000
v 0.028640 0.011863 0.055000
v 0.026847 0.015500 0.055000
v 0.024594 0.018872 0.055000
v 0.021920 0.021920 0.055000
v 0.018872 0.024594 0.055000
v 0.015500 0.026847 0.055000
v 0.011863 0.028640 0.055000
v 0.008023 0.029944 0.055000
v 0.004046 0.030735 0.055000
v 0.000000 0.031000 0.055000
v -0.004046 0.030735 0.055000
v -0.008023 0.029944 0.055000
v -0.011863 0.028640 0.055000
v -0.015500 0.026847 0.055000
v -0.018872 0.024594 0.055000
v -0.021920 0.021920 0.055000
v -0.024594 0.018872 0.055000
v -0.026847 0.015500 0.055000
v -0.028640 0.011863 0.055000
v -0.029944 0.008023 0.055000
v -0.030735 0.004046 0.055000
v -0.031000 0.000000 0.055000
v -0.030735 -0.004046 0.055000
v -0.029944 -0.008023 0.055000
v -0.028640 -0.011863 0.055000
v -0.026847 -0.015500 0.055000
v -0.024594 -0.018872 0.055000
v -0.021920 -0.021920 0.055000
v -0.018872 -0.024594 0.055000
v -0.015500 -0.026847 0.055000
v -0.011863 -0.028640 0.055000
v -0.008023 -0.029944 0.055000
v -0.004046 -0.030735 0.055000
v -0.000000 -0.031000 0.055000
v 0.004046 -0.030735 0.055000
v 0.008023 -0.029944 0.055000
v 0.011863 -0.028640 0.055000
v 0.015500 -0.026847 0.055000
v 0.018872 -0.024594 0.055000
v 0.021920 -0.021920 0.055000
v 0.024594 -0.018872 0.055000
v 0.026847 -0.015500 0.055000
v 0.028640 -0.011863 0.055000
v 0.029944 -0.008023 0.055000
v 0.030735 -0.004046 0.055000
v 0.031000 0.000000 -0.040000
v 0.030735 0.004046 -0.040000
v 0.029944 0.008023 -0.040000
v 0.028640 0.011863 -0.040000
v 0.026847 0.015500 -0.040000
v 0.024594 0.018872 -0.040000
v 0.021920 0.021920 -0.040000
v 0.018872 0.024594 -0.040000
v 0.015500 0.026847 -0.040000
v 0.011863 0.028640 -0.040000
v 0.008023 0.029944 -0.040000
v 0.004046 0.030735 -0.040000
v 0.000000 0.031000 -0.040000
v -0.004046 0.030735 -0.040000
v -0.008023 0.029944 -0.040000
v -0.011863 0.028640 -0.040000
v -0.015500 0.026847 -0.040000
v -0.018872 0.024594 -0.040000
v -0.021920 0.021920 -0.040000
v -0.024594 0.018872 -0.040000
v -0.026847 0.015500 -0.040000
v -0.028640 0.011863 -0.040000
v -0.029944 0.008023 -0.040000
v -0.030735 0.004046 -0.040000
v -0.031000 0.000000 -0.040000
v -0.030735 -0.004046 -0.040000
v -0.029944 -0.008023 -0.040000
v -0.028640 -0.011863 -0.040000
v -0.026847 -0.015500 -0.040000
v -0.024594 -0.018872 -0.040000
v -0.021920 -0.021920 -0.040000
v -0.018872 -0.024594 -0.040000
v -0.015500 -0.026847 -0.040000
v -0.011863 -0.028640 -0.040000
v -0.008023 -0.029944 -0.040000
v -0.004046 -0.030735 -0.040000
v -0.000000 -0.031000 -0.040000
v 0.004046 -0.030735 -0.040000
v 0.008023 -0.029944 -0.040000
v 0.011863 -0.028640 -0.040000
v 0.015500 -0.026847 -0.040000
v 0.018872 -0.024594 -0.040000
v 0.021920 -0.021920 -0.040000
v 0.024594 -0.018872 -0.040000
v 0.026847 -0.015500 -0.040000
v 0.028640 -0.011863 -0.040000
v 0.029944 -0.008023 -0.040000
v 0.030735 -0.004046 -0.040000
v 0.000000 0.000000 -0.055000
v 0.000000 0.000000 -0.040000
f 1 2 50 49
f 97 98 146 145
f 49 50 98 97
f 2 1 193
f 194 145 146
f 2 3 51 50
f 98 99 147 146
f 50 51 99 98
f 3 2 193
f 194 146 147
f 3 4 52 51
f 99 100 148 147
f 51 52 100 99
f 4 3 193
f 194 147 148
f 4 5 53 52
f 100 101 149 148
f 52 53 101 100
f 5 4 193
f 194 148 149
f 5 6 54 53
f 101 102 150 149
f 53 54 102 101
f 6 5 193
f 194 149 150
f 6 7 55 54
f 102 103 151 150
f 54 55 103 102
f 7 6 193
f 194 150 151
f 7 8 56 55
f 103 104 152 151
f 55 56 104 103
f 8 7 193
f 194 151 152
f 8 9 57 56
f 104 105 153 152
f 56 57 105 104
f 9 8 193
f 194 152 153
f 9 10 58 57
f 105 106 154 153
f 57 58 106 105
f 10 9 193
f 194 153 154
f 10 11 59 58
f 106 107 155 154
f 58 59 107 106
f 11 10 193
f 194 154 155
f 11 12 60 59
f 107 108 156 155
f 59 60 108 107
f 12 11 193
f 194 155 156
f 12 13 61 60
f 108 109 157 156
f 60 61 109 108
f 13 12 193
f 194 156 157
f 13 14 62 61
f 109 110 158 157
f 61 62 110 109
f 14 13 193
f 194 157 158
f 14 15 63 62
f 110 111 159 158
f 62 63 111 110
f 15 14 193
f 194 158 159
f 15 16 64 63
f 111 112 160 159
f 63 64 112 111
f 16 15 193
f 194 159 160
f 16 17 65 64
f 112 113 161 160
f 64 65 113 112
f 17 16 193
f 194 160 161
f 17 18 66 65
f 113 114 162 161
f 65 66 114 113
f 18 17 193
f 194 161 162
f 18 19 67 66
f 114 115 163 162
f 66 67 115 114
f 19 18 193
f 194 162 163
f 19 20 68 67
f 115 116 164 163
f 67 68 116 115
f 20 19 193
f 194 163 164
f 20 21 69 68
f 116 117 165 164
f 68 69 117 116
f 21 20 193
f 194 164 165
f 21 22 70 69
f 117 118 166 165
f 69 70 118 117
f 22 21 193
f 194 165 166
f 22 23 71 70
f 118 119 167 166
f 70 71 119 118
f 23 22 193
f 194 166 167
f 23 24 72 71
f 119 120 168 167
f 71 72 120 119
f 24 23 193
f 194 167 168
f 24 25 73 72
f 120 121 169 168
f 72 73 121 120
f 25 24 193
f 194 168 169
f 25 26 74 73
f 121 122 170 169
f 73 74 122 121
f 26 25 193
f 194 169 170
f 26 27 75 74
f 122 123 171 170
f 74 75 123 122
f 27 26 193
f 194 170 171
f 27 28 76 75
f 123 124 172 171
f 75 76 124 123
f 28 27 193
f 194 171 172
f 28 29 77 76
f 124 125 173 172
f 76 77 125 124
f 29 28 193
f 194 172 173
f 29 30 78 77
f 125 126 174 173
f 77 78 126 125
f 30 29 193
f 194 173 174
f 30 31 79 78
f 126 127 175 174
f 78 79 127 126
f 31 30 193
f 194 174 175
f 31 32 80 79
f 127 128 176 175
f 79 80 128 127
f 32 31 193
f 194 175 176
f 32 33 81 80
f 128 129 177 176
f 80 81 129 128
f 33 32 193
f 194 176 177
f 33 34 82 81
f 129 130 178 177
f 81 82 130 129
f 34 33 193
f 194 177 178
f 34 35 83 82
f 130 131 179 178
f 82 83 131 130
f 35 34 193
f 194 178 179
f 35 36 84 83
f 131 132 180 179
f 83 84 132 131
f 36 35 193
f 194 179 180
f 36 37 85 84
f 132 133 181 180
f 84 85 133 132
f 37 36 193
f 194 180 181
f 37 38 86 85
f 133 134 182 181
f 85 86 134 133
f 38 37 193
f 194 181 182
f 38 39 87 86
f 134 135 183 182
f 86 87 135 134
f 39 38 193
f 194 182 183
f 39 40 88 87
f 135 136 184 183
f 87 88 136 135
f 40 39 193
f 194 183 184
f 40 41 89 88
f 136 137 185 184
f 88 89 137 136
f 41 40 193
f 194 184 185
f 41 42 90 89
f 137 138 186 185
f 89 90 138 137
f 42 41 193
f 194 185 186
f 42 43 91 90
f 138 139 187 186
f 90 91 139 138
f 43 42 193
f 194 186 187
f 43 44 92 91
f 139 140 188 187
f 91 92 140 139
f 44 43 193
f 194 187 188
f 44 45 93 92
f 140 141 189 188
f 92 93 141 140
f 45 44 193
f 194 188 189
f 45 46 94 93
f 141 142 190 189
f 93 94 142 141
f 46 45 193
f 194 189 190
f 46 47 95 94
f 142 143 191 190
f 94 95 143 142
f 47 46 193
f 194 190 191
f 47 48 96 95
f 143 144 192 191
f 95 96 144 143
f 48 47 193
f 194 191 192
f 48 1 49 96
f 144 97 145 192
f 96 49 97 144
f 1 48 193
f 194 192 145
